NotoSerif-CondensedBold.ufo
<glyph name="uni023D" format="2">
  <advance width="564"/>
  <unicode hex="023D"/>
  <anchor x="282" y="0" name="bottom"/>
  <anchor x="282" y="714" name="top"/>
  <anchor x="179" y="357" name="center"/>
  <anchor x="544" y="714" name="topright"/>
  <outline>
    <contour>
      <point x="19" y="329" type="line"/>
      <point x="401" y="329" type="line"/>
      <point x="401" y="393" type="line"/>
      <point x="19" y="393" type="line"/>
    </contour>
    <component base="L"/>
  </outline>
</glyph>
<glyph name="uni0247" format="2">
  <advance width="499"/>
  <unicode hex="0247"/>
  <anchor x="250" y="-118" name="bottom"/>
  <anchor x="250" y="714" name="top"/>
  <anchor x="479" y="536" name="topright"/>
  <outline>
    <contour>
      <point x="110" y="-118" type="line"/>
      <point x="182" y="-118" type="line"/>
      <point x="380" y="714" type="line"/>
      <point x="312" y="714" type="line"/>
    </contour>
    <component base="e"/>
  </outline>
</glyph>
<glyph name="uni024D" format="2">
  <advance width="468"/>
  <unicode hex="024D"/>
  <anchor x="234" y="0" name="bottom"/>
  <anchor x="234" y="536" name="top"/>
  <anchor x="468" y="536" name="topright"/>
  <outline>
    <contour>
      <point x="2" y="241" type="line"/>
      <point x="318" y="241" type="line"/>
      <point x="318" y="302" type="line"/>
      <point x="2" y="302" type="line"/>
    </contour>
    <component base="r"/>
  </outline>
</glyph>
<glyph name="uni02CD" format="2">
  <advance width="322"/>
  <unicode hex="02CD"/>
  <outline>
    <contour>
      <point x="40" y="-164" type="line"/>
      <point x="281" y="-164" type="line"/>
      <point x="281" y="-81" type="line"/>
      <point x="40" y="-81" type="line"/>
    </contour>
  </outline>
</glyph>
<glyph name="arrowheadleftbelowcomb" format="2">
  <unicode hex="0354"/>
  <anchor x="0" y="0" name="_bottom"/>
  <anchor x="0" y="-240" name="bottom"/>
  <outline>
    <contour>
      <point x="71" y="-240" type="curve"/>
      <point x="80" y="-240" type="line"/>
      <point x="80" y="-189" type="line"/>
      <point x="59" y="-172"/>
      <point x="30" y="-153"/>
      <point x="2" y="-140" type="curve"/>
      <point x="34" y="-126"/>
      <point x="66" y="-103"/>
      <point x="80" y="-91" type="curve"/>
      <point x="80" y="-40" type="line"/>
      <point x="71" y="-40" type="line"/>
      <point x="17" y="-77"/>
      <point x="-29" y="-102"/>
      <point x="-80" y="-111" type="curve"/>
      <point x="-80" y="-169" type="line"/>
      <point x="-30" y="-184"/>
      <point x="18" y="-204"/>
    </contour>
  </outline>
</glyph>
<glyph name="arrowheadrightbelowcomb" format="2">
  <unicode hex="0355"/>
  <anchor x="0" y="0" name="_bottom"/>
  <anchor x="0" y="-240" name="bottom"/>
  <outline>
    <contour>
      <point x="-80" y="-189" type="curve"/>
      <point x="-80" y="-240" type="line"/>
      <point x="-71" y="-240" type="line"/>
      <point x="-17" y="-203"/>
      <point x="30" y="-178"/>
      <point x="80" y="-169" type="curve"/>
      <point x="80" y="-111" type="line"/>
      <point x="30" y="-96"/>
      <point x="-17" y="-76"/>
      <point x="-71" y="-40" type="curve"/>
      <point x="-80" y="-40" type="line"/>
      <point x="-80" y="-91" type="line"/>
      <point x="-59" y="-108"/>
      <point x="-30" y="-127"/>
      <point x="-1" y="-140" type="curve"/>
      <point x="-34" y="-154"/>
      <point x="-66" y="-177"/>
    </contour>
  </outline>
</glyph>
<glyph name="uni049E" format="2">
  <advance width="651"/>
  <unicode hex="049E"/>
  <anchor x="326" y="0" name="bottom"/>
  <anchor x="326" y="714" name="top"/>
  <outline>
    <contour>
      <point x="19" y="535" type="line"/>
      <point x="337" y="535" type="line"/>
      <point x="337" y="588" type="line"/>
      <point x="19" y="588" type="line"/>
    </contour>
    <component base="afii10028"/>
  </outline>
</glyph>
<glyph name="uni051F" format="2">
  <advance width="552"/>
  <unicode hex="051F"/>
  <anchor x="276" y="0" name="bottom"/>
  <anchor x="276" y="536" name="top"/>
  <outline>
    <contour>
      <point x="434" y="319" type="line"/>
      <point x="465" y="367" type="line"/>
      <point x="303" y="473" type="line"/>
      <point x="272" y="424" type="line"/>
    </contour>
    <component base="afii10076"/>
  </outline>
</glyph>
<glyph name="uni052A" format="2">
  <advance width="1257"/>
  <unicode hex="052A"/>
  <anchor x="629" y="-210" name="bottom"/>
  <anchor x="629" y="714" name="top"/>
  <outline>
    <contour>
      <point x="467" y="329" type="line"/>
      <point x="740" y="329" type="line"/>
      <point x="740" y="393" type="line"/>
      <point x="467" y="393" type="line"/>
    </contour>
    <component base="afii10021"/>
    <component base="afii10028" xOffset="606"/>
  </outline>
</glyph>
<glyph name="uni052D" format="2">
  <advance width="469"/>
  <unicode hex="052D"/>
  <anchor x="235" y="-210" name="bottom"/>
  <anchor x="235" y="536" name="top"/>
  <outline>
    <contour>
      <point x="6" y="-210" type="line"/>
      <point x="80" y="-210" type="line"/>
      <point x="85" y="-137" type="line" smooth="yes"/>
      <point x="90" y="-37"/>
      <point x="111" y="0"/>
      <point x="171" y="0" type="curve" smooth="yes"/>
      <point x="414" y="0" type="line" smooth="yes"/>
      <point x="477" y="0"/>
      <point x="489" y="-38"/>
      <point x="496" y="-137" type="curve" smooth="yes"/>
      <point x="500" y="-210" type="line"/>
      <point x="574" y="-210" type="line"/>
      <point x="574" y="58" type="line"/>
      <point x="547" y="58" type="line" smooth="yes"/>
      <point x="505" y="58"/>
      <point x="497" y="76"/>
      <point x="497" y="128" type="curve" smooth="yes"/>
      <point x="497" y="401" type="line" smooth="yes"/>
      <point x="497" y="457"/>
      <point x="510" y="475"/>
      <point x="544" y="475" type="curve" smooth="yes"/>
      <point x="562" y="475" type="line"/>
      <point x="562" y="536" type="line"/>
      <point x="297" y="536" type="line"/>
      <point x="199" y="309" type="line"/>
      <point x="198" y="318"/>
      <point x="197" y="328"/>
      <point x="197" y="339" type="curve" smooth="yes"/>
      <point x="197" y="418" type="line" smooth="yes"/>
      <point x="197" y="468"/>
      <point x="205" y="480"/>
      <point x="231" y="480" type="curve" smooth="yes"/>
      <point x="237" y="480" type="line"/>
      <point x="237" y="536" type="line"/>
      <point x="-21" y="536" type="line"/>
      <point x="-21" y="480" type="line"/>
      <point x="-14" y="480" type="line" smooth="yes"/>
      <point x="21" y="480"/>
      <point x="34" y="458"/>
      <point x="34" y="412" type="curve" smooth="yes"/>
      <point x="34" y="312" type="line" smooth="yes"/>
      <point x="34" y="244"/>
      <point x="64" y="200"/>
      <point x="145" y="185" type="curve"/>
      <point x="93" y="65" type="line"/>
      <point x="6" y="65" type="line"/>
    </contour>
    <contour>
      <point x="162" y="65" type="line"/>
      <point x="210" y="179" type="line"/>
      <point x="213" y="179"/>
      <point x="216" y="179"/>
      <point x="219" y="179" type="curve" smooth="yes"/>
      <point x="257" y="179"/>
      <point x="298" y="192"/>
      <point x="333" y="211" type="curve"/>
      <point x="333" y="65" type="line"/>
    </contour>
    <contour>
      <point x="242" y="254" type="curve"/>
      <point x="333" y="471" type="line"/>
      <point x="333" y="277" type="line"/>
      <point x="307" y="262"/>
      <point x="276" y="254"/>
    </contour>
  </outline>
</glyph>
<glyph name="uni1ABF" format="2">
  <unicode hex="1ABF"/>
  <anchor x="0" y="0" name="_bottom"/>
  <outline>
    <contour>
      <point x="-35" y="-278" type="line"/>
      <point x="1" y="-154" type="line"/>
      <point x="33" y="-278" type="line"/>
      <point x="82" y="-278" type="line"/>
      <point x="131" y="-117" type="line" smooth="yes"/>
      <point x="138" y="-92"/>
      <point x="144" y="-86"/>
      <point x="158" y="-86" type="curve" smooth="yes"/>
      <point x="163" y="-86" type="line"/>
      <point x="163" y="-64" type="line"/>
      <point x="73" y="-64" type="line"/>
      <point x="73" y="-86" type="line"/>
      <point x="76" y="-86" type="line" smooth="yes"/>
      <point x="92" y="-86"/>
      <point x="100" y="-92"/>
      <point x="100" y="-106" type="curve" smooth="yes"/>
      <point x="100" y="-110"/>
      <point x="99" y="-119"/>
      <point x="97" y="-126" type="curve" smooth="yes"/>
      <point x="82" y="-182" type="line" smooth="yes"/>
      <point x="79" y="-196"/>
      <point x="77" y="-208"/>
      <point x="76" y="-220" type="curve"/>
      <point x="74" y="-220" type="line"/>
      <point x="73" y="-211"/>
      <point x="72" y="-195"/>
      <point x="68" y="-184" type="curve" smooth="yes"/>
      <point x="33" y="-66" type="line"/>
      <point x="8" y="-66" type="line"/>
      <point x="-29" y="-178" type="line" smooth="yes"/>
      <point x="-33" y="-190"/>
      <point x="-37" y="-207"/>
      <point x="-39" y="-220" type="curve"/>
      <point x="-40" y="-220" type="line"/>
      <point x="-42" y="-208"/>
      <point x="-46" y="-187"/>
      <point x="-50" y="-168" type="curve" smooth="yes"/>
      <point x="-60" y="-120" type="line" smooth="yes"/>
      <point x="-61" y="-114"/>
      <point x="-63" y="-107"/>
      <point x="-63" y="-103" type="curve" smooth="yes"/>
      <point x="-63" y="-90"/>
      <point x="-55" y="-86"/>
      <point x="-40" y="-86" type="curve" smooth="yes"/>
      <point x="-36" y="-86" type="line"/>
      <point x="-36" y="-64" type="line"/>
      <point x="-159" y="-64" type="line"/>
      <point x="-159" y="-86" type="line"/>
      <point x="-158" y="-86" type="line" smooth="yes"/>
      <point x="-144" y="-86"/>
      <point x="-137" y="-90"/>
      <point x="-132" y="-107" type="curve" smooth="yes"/>
      <point x="-84" y="-278" type="line"/>
    </contour>
  </outline>
</glyph>
<glyph name="uni1AC0" format="2">
  <unicode hex="1AC0"/>
  <anchor x="0" y="0" name="_bottom"/>
  <outline>
    <contour>
      <point x="36" y="-64" type="line"/>
      <point x="1" y="-188" type="line"/>
      <point x="-32" y="-64" type="line"/>
      <point x="-81" y="-64" type="line"/>
      <point x="-130" y="-225" type="line" smooth="yes"/>
      <point x="-137" y="-250"/>
      <point x="-143" y="-256"/>
      <point x="-157" y="-256" type="curve" smooth="yes"/>
      <point x="-162" y="-256" type="line"/>
      <point x="-162" y="-278" type="line"/>
      <point x="-72" y="-278" type="line"/>
      <point x="-72" y="-256" type="line"/>
      <point x="-75" y="-256" type="line" smooth="yes"/>
      <point x="-91" y="-256"/>
      <point x="-99" y="-250"/>
      <point x="-99" y="-236" type="curve" smooth="yes"/>
      <point x="-99" y="-232"/>
      <point x="-98" y="-223"/>
      <point x="-96" y="-216" type="curve" smooth="yes"/>
      <point x="-81" y="-160" type="line" smooth="yes"/>
      <point x="-78" y="-146"/>
      <point x="-76" y="-134"/>
      <point x="-75" y="-122" type="curve"/>
      <point x="-73" y="-122" type="line"/>
      <point x="-72" y="-131"/>
      <point x="-71" y="-147"/>
      <point x="-67" y="-158" type="curve" smooth="yes"/>
      <point x="-32" y="-276" type="line"/>
      <point x="-7" y="-276" type="line"/>
      <point x="30" y="-164" type="line" smooth="yes"/>
      <point x="34" y="-152"/>
      <point x="38" y="-135"/>
      <point x="40" y="-122" type="curve"/>
      <point x="41" y="-122" type="line"/>
      <point x="43" y="-134"/>
      <point x="47" y="-155"/>
      <point x="51" y="-174" type="curve" smooth="yes"/>
      <point x="61" y="-222" type="line" smooth="yes"/>
      <point x="62" y="-228"/>
      <point x="64" y="-235"/>
      <point x="64" y="-239" type="curve" smooth="yes"/>
      <point x="64" y="-252"/>
      <point x="56" y="-256"/>
      <point x="41" y="-256" type="curve" smooth="yes"/>
      <point x="37" y="-256" type="line"/>
      <point x="37" y="-278" type="line"/>
      <point x="160" y="-278" type="line"/>
      <point x="160" y="-256" type="line"/>
      <point x="159" y="-256" type="line" smooth="yes"/>
      <point x="145" y="-256"/>
      <point x="138" y="-252"/>
      <point x="133" y="-235" type="curve" smooth="yes"/>
      <point x="85" y="-64" type="line"/>
    </contour>
  </outline>
</glyph>
<glyph name="uni1D7A" format="2">
  <advance width="961"/>
  <unicode hex="1D7A"/>
  <anchor x="226" y="0" name="bottom_1"/>
  <anchor x="653" y="0" name="bottom_2"/>
  <anchor x="176" y="268" name="center_1"/>
  <anchor x="653" y="268" name="center_2"/>
  <anchor x="186" y="660" name="top_1"/>
  <anchor x="523" y="760" name="top_2"/>
  <anchor x="231" y="1010" name="topright_1"/>
  <anchor x="896" y="760" name="topright_2"/>
  <outline>
    <contour>
      <point x="39" y="-110" type="line"/>
      <point x="125" y="-110" type="line"/>
      <point x="793" y="760" type="line"/>
      <point x="707" y="760" type="line"/>
    </contour>
    <component base="t"/>
    <component base="h" xOffset="365"/>
  </outline>
</glyph>
<glyph name="uni1D7C" format="2">
  <advance width="364"/>
  <unicode hex="1D7C"/>
  <anchor x="182" y="0" name="bottom"/>
  <anchor x="182" y="536" name="top"/>
  <outline>
    <contour>
      <point x="2" y="268" type="line"/>
      <point x="333" y="268" type="line"/>
      <point x="333" y="329" type="line"/>
      <point x="2" y="329" type="line"/>
    </contour>
    <component base="iotaLatin"/>
  </outline>
</glyph>
<glyph name="uni1D7D" format="2">
  <advance width="557"/>
  <unicode hex="1D7D"/>
  <anchor x="163" y="-225" name="bottom"/>
  <anchor x="279" y="536" name="top"/>
  <anchor x="547" y="536" name="topright"/>
  <outline>
    <contour>
      <point x="-6" y="234" type="line"/>
      <point x="580" y="234" type="line"/>
      <point x="580" y="298" type="line"/>
      <point x="-6" y="298" type="line"/>
    </contour>
    <component base="p"/>
  </outline>
</glyph>
<glyph name="uni1D7F" format="2">
  <advance width="533"/>
  <unicode hex="1D7F"/>
  <anchor x="265" y="0" name="bottom"/>
  <anchor x="265" y="536" name="top"/>
  <outline>
    <contour>
      <point x="-2" y="251" type="line"/>
      <point x="535" y="251" type="line"/>
      <point x="535" y="311" type="line"/>
      <point x="-2" y="311" type="line"/>
    </contour>
    <component base="uni028A"/>
  </outline>
</glyph>
<glyph name="second" format="2">
  <advance width="474"/>
  <unicode hex="2033"/>
  <outline>
    <contour>
      <point x="234" y="479" type="line"/>
      <point x="325" y="479" type="line"/>
      <point x="454" y="714" type="line"/>
      <point x="276" y="714" type="line"/>
    </contour>
    <contour>
      <point x="20" y="479" type="line"/>
      <point x="111" y="479" type="line"/>
      <point x="240" y="714" type="line"/>
      <point x="62" y="714" type="line"/>
    </contour>
  </outline>
</glyph>
<glyph name="uni2034" format="2">
  <advance width="688"/>
  <unicode hex="2034"/>
  <outline>
    <contour>
      <point x="448" y="479" type="line"/>
      <point x="539" y="479" type="line"/>
      <point x="668" y="714" type="line"/>
      <point x="490" y="714" type="line"/>
    </contour>
    <contour>
      <point x="20" y="479" type="line"/>
      <point x="111" y="479" type="line"/>
      <point x="240" y="714" type="line"/>
      <point x="62" y="714" type="line"/>
    </contour>
    <contour>
      <point x="234" y="479" type="line"/>
      <point x="325" y="479" type="line"/>
      <point x="454" y="714" type="line"/>
      <point x="276" y="714" type="line"/>
    </contour>
  </outline>
</glyph>
<glyph name="doubleprimeReversed" format="2">
  <advance width="474"/>
  <unicode hex="2036"/>
  <outline>
    <contour>
      <point x="363" y="479" type="line"/>
      <point x="454" y="479" type="line"/>
      <point x="412" y="714" type="line"/>
      <point x="234" y="714" type="line"/>
    </contour>
    <contour>
      <point x="149" y="479" type="line"/>
      <point x="240" y="479" type="line"/>
      <point x="198" y="714" type="line"/>
      <point x="20" y="714" type="line"/>
    </contour>
  </outline>
</glyph>
<glyph name="quadrupleprime" format="2">
  <advance width="903"/>
  <unicode hex="2057"/>
  <outline>
    <contour>
      <point x="662" y="479" type="line"/>
      <point x="753" y="479" type="line"/>
      <point x="883" y="714" type="line"/>
      <point x="704" y="714" type="line"/>
    </contour>
    <contour>
      <point x="20" y="479" type="line"/>
      <point x="112" y="479" type="line"/>
      <point x="241" y="714" type="line"/>
      <point x="62" y="714" type="line"/>
    </contour>
    <contour>
      <point x="234" y="479" type="line"/>
      <point x="325" y="479" type="line"/>
      <point x="455" y="714" type="line"/>
      <point x="276" y="714" type="line"/>
    </contour>
    <contour>
      <point x="448" y="479" type="line"/>
      <point x="540" y="479" type="line"/>
      <point x="669" y="714" type="line"/>
      <point x="490" y="714" type="line"/>
    </contour>
  </outline>
</glyph>
<glyph name="uni20A5" format="2">
  <advance width="847"/>
  <unicode hex="20A5"/>
  <anchor x="455" y="0" name="bottom"/>
  <anchor x="464" y="536" name="top"/>
  <anchor x="827" y="536" name="topright"/>
  <outline>
    <contour>
      <point x="259" y="-125" type="line"/>
      <point x="331" y="-125" type="line"/>
      <point x="617" y="666" type="line"/>
      <point x="549" y="666" type="line"/>
    </contour>
    <component base="m"/>
  </outline>
</glyph>
<glyph name="uni20AD" format="2">
  <advance width="652"/>
  <unicode hex="20AD"/>
  <anchor x="356" y="0" name="bottom"/>
  <anchor x="345" y="714" name="top"/>
  <anchor x="632" y="714" name="topright"/>
  <outline>
    <contour>
      <point x="6" y="340" type="line"/>
      <point x="586" y="340" type="line"/>
      <point x="586" y="404" type="line"/>
      <point x="6" y="404" type="line"/>
    </contour>
    <component base="K"/>
  </outline>
</glyph>
<glyph name="uni20B2" format="2">
  <advance width="675"/>
  <unicode hex="20B2"/>
  <anchor x="368" y="0" name="bottom"/>
  <anchor x="370" y="714" name="top"/>
  <anchor x="655" y="714" name="topright"/>
  <outline>
    <contour>
      <point x="327" y="-80" type="line"/>
      <point x="380" y="-80" type="line"/>
      <point x="380" y="780" type="line"/>
      <point x="327" y="780" type="line"/>
    </contour>
    <component base="G"/>
  </outline>
</glyph>
<glyph name="uni20B5" format="2">
  <advance width="591"/>
  <unicode hex="20B5"/>
  <anchor x="336" y="0" name="bottom"/>
  <anchor x="347" y="714" name="top"/>
  <anchor x="571" y="714" name="topright"/>
  <outline>
    <contour>
      <point x="313" y="-81" type="line"/>
      <point x="363" y="-81" type="line"/>
      <point x="363" y="780" type="line"/>
      <point x="313" y="780" type="line"/>
    </contour>
    <component base="C"/>
  </outline>
</glyph>
<glyph name="uni2C63" format="2">
  <advance width="553"/>
  <unicode hex="2C63"/>
  <anchor x="277" y="0" name="bottom"/>
  <anchor x="277" y="714" name="top"/>
  <anchor x="583" y="714" name="topright"/>
  <outline>
    <contour>
      <point x="11" y="457" type="line"/>
      <point x="341" y="457" type="line"/>
      <point x="341" y="521" type="line"/>
      <point x="11" y="521" type="line"/>
    </contour>
    <component base="P"/>
  </outline>
</glyph>
<glyph name="olowringinside" format="2">
  <advance width="533"/>
  <unicode hex="2C7A"/>
  <anchor x="267" y="0" name="bottom"/>
  <anchor x="267" y="536" name="top"/>
  <outline>
    <contour>
      <point x="265" y="-10" type="curve" smooth="yes"/>
      <point x="419" y="-10"/>
      <point x="499" y="82"/>
      <point x="499" y="270" type="curve" smooth="yes"/>
      <point x="499" y="458"/>
      <point x="410" y="550"/>
      <point x="268" y="550" type="curve" smooth="yes"/>
      <point x="114" y="550"/>
      <point x="34" y="458"/>
      <point x="34" y="270" type="curve" smooth="yes"/>
      <point x="34" y="82"/>
      <point x="121" y="-10"/>
    </contour>
    <contour>
      <point x="268" y="60" type="curve" smooth="yes"/>
      <point x="240" y="60"/>
      <point x="226" y="84"/>
      <point x="226" y="116" type="curve" smooth="yes"/>
      <point x="226" y="146"/>
      <point x="240" y="167"/>
      <point x="268" y="167" type="curve" smooth="yes"/>
      <point x="294" y="167"/>
      <point x="309" y="146"/>
      <point x="309" y="116" type="curve" smooth="yes"/>
      <point x="309" y="84"/>
      <point x="294" y="60"/>
    </contour>
    <contour>
      <point x="201" y="179" type="curve"/>
      <point x="200" y="197"/>
      <point x="200" y="229"/>
      <point x="200" y="270" type="curve" smooth="yes"/>
      <point x="200" y="412"/>
      <point x="216" y="483"/>
      <point x="266" y="483" type="curve" smooth="yes"/>
      <point x="316" y="483"/>
      <point x="334" y="412"/>
      <point x="334" y="270" type="curve" smooth="yes"/>
      <point x="334" y="230"/>
      <point x="333" y="196"/>
      <point x="333" y="179" type="curve"/>
      <point x="324" y="212"/>
      <point x="302" y="235"/>
      <point x="268" y="235" type="curve" smooth="yes"/>
      <point x="235" y="235"/>
      <point x="213" y="212"/>
    </contour>
  </outline>
</glyph>
<glyph name="downwardsancora" format="2">
  <advance width="625"/>
  <unicode hex="2E14"/>
  <outline>
    <contour>
      <point x="379" y="83" type="curve"/>
      <point x="350" y="117" type="line"/>
      <point x="305" y="97"/>
      <point x="263" y="104"/>
      <point x="217" y="151" type="curve"/>
      <point x="541" y="539" type="line"/>
      <point x="516" y="569" type="line"/>
      <point x="192" y="181" type="line"/>
      <point x="167" y="217"/>
      <point x="155" y="251"/>
      <point x="155" y="285" type="curve" smooth="yes"/>
      <point x="155" y="303"/>
      <point x="158" y="322"/>
      <point x="164" y="341" type="curve"/>
      <point x="136" y="375" type="line"/>
      <point x="124" y="344"/>
      <point x="119" y="315"/>
      <point x="119" y="288" type="curve" smooth="yes"/>
      <point x="119" y="232"/>
      <point x="142" y="181"/>
      <point x="180" y="136" type="curve" smooth="yes"/>
      <point x="237" y="68"/>
      <point x="302" y="42"/>
    </contour>
  </outline>
</glyph>
<glyph name="upwardsancora" format="2">
  <advance width="625"/>
  <unicode hex="2E15"/>
  <outline>
    <contour>
      <point x="126" y="42" type="line"/>
      <point x="450" y="430" type="line"/>
      <point x="489" y="375"/>
      <point x="494" y="325"/>
      <point x="478" y="270" type="curve"/>
      <point x="506" y="236" type="line"/>
      <point x="541" y="328"/>
      <point x="519" y="407"/>
      <point x="462" y="475" type="curve" smooth="yes"/>
      <point x="405" y="543"/>
      <point x="339" y="569"/>
      <point x="263" y="528" type="curve"/>
      <point x="292" y="494" type="line"/>
      <point x="337" y="514"/>
      <point x="379" y="507"/>
      <point x="425" y="460" type="curve"/>
      <point x="101" y="72" type="line"/>
    </contour>
  </outline>
</glyph>
<glyph name="uni2E4C" format="2">
  <advance width="297"/>
  <unicode hex="2E4C"/>
  <outline>
    <contour>
      <point x="136" y="154" type="curve" smooth="yes"/>
      <point x="93" y="154"/>
      <point x="56" y="134"/>
      <point x="56" y="72" type="curve" smooth="yes"/>
      <point x="56" y="10"/>
      <point x="93" y="-10"/>
      <point x="136" y="-10" type="curve" smooth="yes"/>
      <point x="181" y="-10"/>
      <point x="216" y="10"/>
      <point x="216" y="72" type="curve" smooth="yes"/>
      <point x="216" y="134"/>
      <point x="181" y="154"/>
    </contour>
    <component base="uni2E45" xScale="0" xyScale="-1" yxScale="1" yScale="0" xOffset="-132" yOffset="591"/>
  </outline>
</glyph>
<glyph name="uniA642" format="2">
  <advance width="602"/>
  <unicode hex="A642"/>
  <outline>
    <contour>
      <point x="68" y="333" type="line"/>
      <point x="509" y="333" type="line"/>
      <point x="509" y="397" type="line"/>
      <point x="68" y="397" type="line"/>
    </contour>
    <component base="uniA640"/>
  </outline>
</glyph>
<glyph name="uniA643" format="2">
  <advance width="451"/>
  <unicode hex="A643"/>
  <outline>
    <contour>
      <point x="39" y="232" type="line"/>
      <point x="398" y="232" type="line"/>
      <point x="398" y="296" type="line"/>
      <point x="39" y="296" type="line"/>
    </contour>
    <component base="uniA641"/>
  </outline>
</glyph>
<glyph name="uniA680" format="2">
  <advance width="606"/>
  <unicode hex="A680"/>
  <anchor x="303" y="0" name="bottom"/>
  <anchor x="303" y="714" name="top"/>
  <outline>
    <contour>
      <point x="206" y="714" type="line"/>
      <point x="269" y="714" type="line"/>
      <point x="269" y="863" type="line"/>
      <point x="206" y="863" type="line"/>
    </contour>
    <component base="afii10021"/>
  </outline>
</glyph>
<glyph name="uniA740" format="2">
  <advance width="652"/>
  <unicode hex="A740"/>
  <anchor x="326" y="714" name="top"/>
  <anchor x="356" y="0" name="bottom"/>
  <anchor x="632" y="714" name="topright"/>
  <outline>
    <contour>
      <point x="18" y="531" type="line"/>
      <point x="339" y="531" type="line"/>
      <point x="339" y="590" type="line"/>
      <point x="18" y="590" type="line"/>
    </contour>
    <component base="K"/>
  </outline>
</glyph>
<glyph name="uniA745" format="2">
  <advance width="674"/>
  <unicode hex="A745"/>
  <anchor x="281" y="0" name="bottom"/>
  <anchor x="151" y="760" name="top"/>
  <anchor x="432" y="900" name="topright"/>
  <outline>
    <contour>
      <point x="294" y="82" type="line"/>
      <point x="518" y="243" type="line"/>
      <point x="479" y="293" type="line"/>
      <point x="256" y="134" type="line"/>
    </contour>
    <contour>
      <point x="16" y="574" type="line"/>
      <point x="368" y="574" type="line"/>
      <point x="368" y="639" type="line"/>
      <point x="16" y="639" type="line"/>
    </contour>
    <component base="k"/>
  </outline>
</glyph>
<glyph name="uniA748" format="2">
  <advance width="677"/>
  <unicode hex="A748"/>
  <anchor x="282" y="0" name="bottom"/>
  <anchor x="179" y="357" name="center"/>
  <anchor x="178" y="714" name="top"/>
  <anchor x="544" y="714" name="topright"/>
  <outline>
    <contour>
      <point x="10" y="526" type="line"/>
      <point x="345" y="526" type="line"/>
      <point x="345" y="589" type="line"/>
      <point x="10" y="589" type="line"/>
    </contour>
    <component base="L"/>
  </outline>
</glyph>
<glyph name="uniA749" format="2">
  <advance width="320"/>
  <unicode hex="A749"/>
  <anchor x="160" y="0" name="bottom"/>
  <anchor x="160" y="268" name="center"/>
  <anchor x="160" y="760" name="top"/>
  <anchor x="299" y="760" name="topright"/>
  <outline>
    <contour>
      <point x="11" y="576" type="line"/>
      <point x="300" y="576" type="line"/>
      <point x="300" y="636" type="line"/>
      <point x="11" y="636" type="line"/>
    </contour>
    <component base="l"/>
  </outline>
</glyph>
<glyph name="uniA74B" format="2">
  <advance width="534"/>
  <unicode hex="A74B"/>
  <anchor x="267" y="0" name="bottom"/>
  <anchor x="267" y="268" name="center"/>
  <anchor x="267" y="536" name="top"/>
  <anchor x="523" y="536" name="topright"/>
  <outline>
    <contour>
      <point x="1" y="249" type="line"/>
      <point x="533" y="249" type="line"/>
      <point x="533" y="311" type="line"/>
      <point x="1" y="311" type="line"/>
    </contour>
    <component base="o"/>
  </outline>
</glyph>
<glyph name="uniA750" format="2">
  <advance width="553"/>
  <unicode hex="A750"/>
  <anchor x="178" y="0" name="bottom"/>
  <anchor x="277" y="714" name="top"/>
  <anchor x="583" y="714" name="topright"/>
  <outline>
    <contour>
      <point x="18" y="144" type="line"/>
      <point x="356" y="144" type="line"/>
      <point x="356" y="203" type="line"/>
      <point x="18" y="203" type="line"/>
    </contour>
    <component base="P"/>
  </outline>
</glyph>
<glyph name="uniA751" format="2">
  <advance width="557"/>
  <unicode hex="A751"/>
  <anchor x="163" y="-225" name="bottom"/>
  <anchor x="279" y="536" name="top"/>
  <anchor x="547" y="536" name="topright"/>
  <outline>
    <contour>
      <point x="7" y="-113" type="line"/>
      <point x="333" y="-113" type="line"/>
      <point x="333" y="-55" type="line"/>
      <point x="7" y="-55" type="line"/>
    </contour>
    <component base="p"/>
  </outline>
</glyph>
<glyph name="uniA75F" format="2">
  <advance width="522"/>
  <unicode hex="A75F"/>
  <anchor x="271" y="0" name="bottom"/>
  <anchor x="311" y="536" name="top"/>
  <anchor x="532" y="536" name="topright"/>
  <outline>
    <contour>
      <point x="110" y="-50" type="line"/>
      <point x="165" y="-50" type="line"/>
      <point x="388" y="596" type="line"/>
      <point x="332" y="596" type="line"/>
    </contour>
    <component base="v"/>
  </outline>
</glyph>
<glyph name="uniA7A2" format="2">
  <advance width="781"/>
  <unicode hex="A7A2"/>
  <anchor x="356" y="0" name="bottom"/>
  <anchor x="345" y="714" name="top"/>
  <anchor x="632" y="714" name="topright"/>
  <outline>
    <contour>
      <point x="21" y="111" type="line"/>
      <point x="602" y="256" type="line"/>
      <point x="602" y="320" type="line"/>
      <point x="21" y="175" type="line"/>
    </contour>
    <component base="K"/>
  </outline>
</glyph>
<glyph name="uniA7A7" format="2">
  <advance width="468"/>
  <unicode hex="A7A7"/>
  <anchor x="154" y="0" name="bottom"/>
  <anchor x="234" y="536" name="top"/>
  <anchor x="468" y="536" name="topright"/>
  <outline>
    <contour>
      <point x="3" y="170" type="line"/>
      <point x="341" y="241" type="line"/>
      <point x="341" y="301" type="line"/>
      <point x="3" y="230" type="line"/>
    </contour>
    <component base="r"/>
  </outline>
</glyph>
<glyph name="uniA7A8" format="2">
  <advance width="504"/>
  <unicode hex="A7A8"/>
  <anchor x="252" y="0" name="bottom"/>
  <anchor x="261" y="714" name="top"/>
  <anchor x="484" y="714" name="topright"/>
  <outline>
    <contour>
      <point x="13" y="263" type="line"/>
      <point x="503" y="400" type="line"/>
      <point x="503" y="464" type="line"/>
      <point x="13" y="327" type="line"/>
    </contour>
    <component base="S"/>
  </outline>
</glyph>
<glyph name="uniA7B9" format="2">
  <advance width="577"/>
  <unicode hex="A7B9"/>
  <anchor x="449" y="0" name="bottom"/>
  <anchor x="287" y="536" name="top"/>
  <anchor x="547" y="536" name="topright"/>
  <outline>
    <contour>
      <point x="67" y="-11" type="line"/>
      <point x="131" y="-11" type="line"/>
      <point x="530" y="581" type="line"/>
      <point x="466" y="581" type="line"/>
    </contour>
    <component base="u"/>
  </outline>
</glyph>
<glyph name="uniA7C7" format="2">
  <advance width="664"/>
  <unicode hex="A7C7"/>
  <anchor x="319" y="0" name="bottom"/>
  <anchor x="332" y="357" name="center"/>
  <anchor x="319" y="714" name="top"/>
  <anchor x="644" y="714" name="topright"/>
  <outline>
    <contour>
      <point x="124" y="344" type="line"/>
      <point x="590" y="344" type="line"/>
      <point x="590" y="397" type="line"/>
      <point x="124" y="397" type="line"/>
    </contour>
    <component base="D"/>
  </outline>
</glyph>
<glyph name="uniA7C8" format="2">
  <advance width="563"/>
  <unicode hex="A7C8"/>
  <anchor x="282" y="0" name="bottom"/>
  <anchor x="282" y="268" name="center"/>
  <anchor x="394" y="760" name="top"/>
  <anchor x="543" y="760" name="topright"/>
  <outline>
    <contour>
      <point x="62" y="248" type="line"/>
      <point x="453" y="248" type="line"/>
      <point x="453" y="300" type="line"/>
      <point x="62" y="300" type="line"/>
    </contour>
    <component base="d"/>
  </outline>
</glyph>
<glyph name="uniA7C9" format="2">
  <advance width="504"/>
  <unicode hex="A7C9"/>
  <anchor x="252" y="0" name="bottom"/>
  <anchor x="261" y="714" name="top"/>
  <anchor x="484" y="714" name="topright"/>
  <outline>
    <contour>
      <point x="10" y="346" type="line"/>
      <point x="490" y="346" type="line"/>
      <point x="490" y="399" type="line"/>
      <point x="10" y="399" type="line"/>
    </contour>
    <component base="S"/>
  </outline>
</glyph>
<glyph name="uniA7CA" format="2">
  <advance width="419"/>
  <unicode hex="A7CA"/>
  <anchor x="210" y="0" name="bottom"/>
  <anchor x="210" y="536" name="top"/>
  <anchor x="399" y="536" name="topright"/>
  <outline>
    <contour>
      <point x="11" y="256" type="line"/>
      <point x="409" y="256" type="line"/>
      <point x="409" y="308" type="line"/>
      <point x="11" y="308" type="line"/>
    </contour>
    <component base="s"/>
  </outline>
</glyph>
<glyph name="uniAB30" format="2">
  <advance width="562"/>
  <unicode hex="AB30"/>
  <anchor x="281" y="0" name="bottom"/>
  <anchor x="281" y="536" name="top"/>
  <outline>
    <contour>
      <point x="-23" y="256" type="line"/>
      <point x="546" y="256" type="line"/>
      <point x="546" y="311" type="line"/>
      <point x="-23" y="311" type="line"/>
    </contour>
    <component base="uni0251"/>
  </outline>
</glyph>
<glyph name="uniAB69" format="2">
  <advance width="465"/>
  <unicode hex="AB69"/>
  <anchor x="211.45" y="287.4" name="bottom"/>
  <anchor x="-5" y="287.4" name="bottomleft"/>
  <anchor x="232.25" y="609" name="top"/>
  <outline>
    <contour>
      <point x="287" y="609" type="line"/>
      <point x="236" y="424" type="line"/>
      <point x="188" y="609" type="line"/>
      <point x="118" y="609" type="line"/>
      <point x="48" y="368" type="line" smooth="yes"/>
      <point x="37" y="329"/>
      <point x="28" y="321"/>
      <point x="7" y="321" type="curve" smooth="yes"/>
      <point x="0" y="321" type="line"/>
      <point x="0" y="287" type="line"/>
      <point x="130" y="287" type="line"/>
      <point x="130" y="321" type="line"/>
      <point x="127" y="321" type="line" smooth="yes"/>
      <point x="103" y="321"/>
      <point x="91" y="330"/>
      <point x="91" y="350" type="curve" smooth="yes"/>
      <point x="91" y="357"/>
      <point x="93" y="370"/>
      <point x="96" y="380" type="curve" smooth="yes"/>
      <point x="117" y="466" type="line" smooth="yes"/>
      <point x="122" y="487"/>
      <point x="124" y="503"/>
      <point x="127" y="522" type="curve"/>
      <point x="130" y="522" type="line"/>
      <point x="130" y="508"/>
      <point x="133" y="484"/>
      <point x="138" y="467" type="curve" smooth="yes"/>
      <point x="188" y="290" type="line"/>
      <point x="224" y="290" type="line"/>
      <point x="278" y="459" type="line" smooth="yes"/>
      <point x="284" y="478"/>
      <point x="290" y="503"/>
      <point x="292" y="521" type="curve"/>
      <point x="295" y="521" type="line"/>
      <point x="297" y="503"/>
      <point x="303" y="473"/>
      <point x="308" y="444" type="curve" smooth="yes"/>
      <point x="323" y="373" type="line" smooth="yes"/>
      <point x="325" y="364"/>
      <point x="327" y="353"/>
      <point x="327" y="346" type="curve" smooth="yes"/>
      <point x="327" y="326"/>
      <point x="316" y="321"/>
      <point x="295" y="321" type="curve" smooth="yes"/>
      <point x="288" y="321" type="line"/>
      <point x="288" y="287" type="line"/>
      <point x="466" y="287" type="line"/>
      <point x="466" y="321" type="line"/>
      <point x="464" y="321" type="line" smooth="yes"/>
      <point x="444" y="321"/>
      <point x="434" y="327"/>
      <point x="427" y="353" type="curve" smooth="yes"/>
      <point x="358" y="609" type="line"/>
    </contour>
  </outline>
</glyph>
<glyph name="tbar.sc" format="2">
  <advance width="512"/>
  <anchor x="256" y="0" name="bottom"/>
  <anchor x="256" y="571" name="top"/>
  <anchor x="256" y="286" name="center"/>
  <anchor x="492" y="571" name="topright"/>
  <outline>
    <contour>
      <point x="89" y="253" type="line"/>
      <point x="427" y="253" type="line"/>
      <point x="427" y="313" type="line"/>
      <point x="89" y="313" type="line"/>
    </contour>
    <component base="t.sc"/>
  </outline>
</glyph>
<glyph name="uni0268dotless" format="2">
  <advance width="313"/>
  <anchor x="157" y="0" name="bottom"/>
  <anchor x="157" y="536" name="top"/>
  <outline>
    <contour>
      <point x="2" y="241" type="line"/>
      <point x="309" y="241" type="line"/>
      <point x="309" y="302" type="line"/>
      <point x="2" y="302" type="line"/>
    </contour>
    <component base="idotless"/>
  </outline>
</glyph>
